# xmcd
#
# Track frame offsets:
#	150
#	12321
#	26092
#	49350
#	60947
#	70780
#	79855
#	89107
#	100973
#	111758
#
# Disc length: 1692 seconds
#
# Revision: 0
# Processed by: cddbd v1.5.2PL0 Copyright (c) Steve Scherf et al.
# Submitted via: EasyCDDAExtractor 10.0.2.1
#
DISCID=82069a0a
DTITLE=Luke Smith - Life Will Work Itself Out
DYEAR=2002
DGENRE=Pop-Blues
TTITLE0=I Love Not Following Trends
TTITLE1=Saturday Job
TTITLE2=Luke's National Anthem
TTITLE3=It's My Art
TTITLE4=What's He Got I Haven't?
TTITLE5=I Fear Change
TTITLE6=Plod On
TTITLE7=She Brings Out The Best In Me
TTITLE8=It's Work
TTITLE9=Life Will Work Itself Out
EXTD=
EXTT0=
EXTT1=
EXTT2=
EXTT3=
EXTT4=
EXTT5=
EXTT6=
EXTT7=
EXTT8=
EXTT9=
PLAYORDER=
